<svg width="76" height="70" viewBox="0 0 76 70" fill="none" xmlns="http://www.w3.org/2000/svg">
  <path fill-rule="evenodd" clip-rule="evenodd"
    d="M34.5452 0.296662C32.109 -0.33026 29.6476 -0.0744257 27.819 2.14651C42.2165 9.02859 49.5024 20.3891 49.975 36.2364C59.939 25.3454 59.5761 9.54587 54.1946 0.887039C54.0692 1.21836 53.9503 1.55534 53.8308 1.89381C53.5834 2.595 53.3337 3.30259 53.0188 3.97948C51.6685 6.86669 49.6543 7.53859 46.8637 6.04016C46.1417 5.65136 45.4333 5.23337 44.725 4.81538C43.6203 4.16346 42.5155 3.51152 41.3585 2.97022C39.1502 1.93566 36.8941 0.901094 34.5452 0.296662ZM45.1614 24.7612C41.299 12.2199 29.0648 3.49364 16.5043 3.29966C16.6335 3.43517 16.7505 3.55315 16.8574 3.66083C17.0763 3.88155 17.2524 4.05901 17.4017 4.25551C17.5749 4.48385 17.7541 4.70961 17.9335 4.93563L17.9335 4.93568L17.9336 4.93573L17.9336 4.93579L17.9337 4.93584C18.4301 5.5613 18.9281 6.18878 19.3062 6.87846C20.3695 8.82107 19.9335 10.5444 18.1444 11.8517C17.6924 12.1834 17.2104 12.4702 16.7284 12.7569C16.4874 12.9003 16.2465 13.0437 16.0092 13.1927C15.3228 13.6237 14.6318 14.0491 13.9405 14.4746L13.9405 14.4746L13.9405 14.4746C12.2468 15.5172 10.5516 16.5607 8.91742 17.6908C7.15361 18.9193 5.62047 20.4402 4.74841 22.47C4.13234 23.9037 3.90729 25.3712 4.60494 26.8387C17.7421 17.8482 31.245 17.2409 45.1614 24.7612ZM14.3665 59.3474C13.1681 43.5282 19.295 31.5267 32.8429 23.1856C19.7789 20.1859 5.96095 26.8206 0 37.1718C0.384629 37.1071 0.765938 37.0358 1.14552 36.9648L1.1458 36.9647L1.14607 36.9647L1.14633 36.9646C1.87141 36.8289 2.5902 36.6944 3.31384 36.6096C6.2704 36.2582 7.98638 37.6188 8.15517 40.5848C8.23589 42.0266 8.25229 43.4714 8.26869 44.9161V44.9162C8.28372 46.2406 8.29875 47.5648 8.36333 48.8866C8.48992 51.5208 8.85001 54.1268 10.2397 56.4574C11.1793 58.0317 12.4986 59.0663 14.3665 59.3474ZM75.2534 32.0867C69.253 42.2411 55.9752 49.0304 42.3401 46.1263C55.9236 37.8217 62.0937 25.7584 60.8503 9.93637C62.7351 10.2175 64.0572 11.2774 64.9912 12.8573C66.3977 15.2244 66.7325 17.8699 66.8591 20.5378C66.9421 22.2346 66.953 23.9238 66.9639 25.613C66.9693 26.4427 66.9746 27.2724 66.9885 28.103C67.0476 31.6059 68.8761 33.1634 72.3334 32.6208C72.9732 32.5241 73.6001 32.403 74.2635 32.2748C74.5832 32.2131 74.9113 32.1497 75.2534 32.0867ZM70.6593 42.407C57.5193 51.3947 44.0615 52.0413 29.9791 44.4508C32.3112 51.2373 36.2889 56.5872 42.0867 60.5624C46.9788 63.9399 52.741 65.8373 58.684 66.0276C58.3963 65.6739 58.1127 65.3445 57.839 65.0264C57.3338 64.4395 56.862 63.8914 56.4588 63.3006C54.6303 60.6158 55.055 58.6816 57.7781 56.9414C58.0043 56.7952 58.2364 56.6587 58.4686 56.5222L58.4688 56.5221L58.469 56.522C58.6294 56.4277 58.7898 56.3334 58.9484 56.2358C59.5831 55.8469 60.2206 55.4624 60.8579 55.078C62.3813 54.1591 63.904 53.2406 65.3876 52.2634C67.1823 51.0827 68.828 49.6855 69.9532 47.8216C70.9884 46.1263 71.4414 44.3355 70.6593 42.407ZM21.0337 68.5578C14.7858 57.4672 16.5693 42.2214 25.2899 33.0987C25.7288 48.8927 33.0372 60.2307 47.4121 67.1156C46.9525 67.6991 46.3771 68.1813 45.7221 68.532C45.0672 68.8828 44.3467 69.0944 43.606 69.1538C41.4265 69.3541 39.2348 68.933 37.285 67.9393C34.4944 66.5561 31.7601 65.0661 29.0342 63.5621C25.4109 61.5632 23.2645 62.3307 21.7989 66.2328C21.6196 66.7138 21.4656 67.2012 21.297 67.7347C21.2143 67.9964 21.1281 68.2692 21.0337 68.5578Z"
    fill="url(#paint0_linear_159_240)" />
  <defs>
    <linearGradient id="paint0_linear_159_240" x1="35.2516" y1="-5.84962e-07" x2="25.9026" y2="67.2642"
      gradientUnits="userSpaceOnUse">
      <stop stop-color="#9366D6" />
      <stop offset="0.337997" stop-color="#56CDFC" />
      <stop offset="0.67241" stop-color="#F690E6" />
      <stop offset="1" stop-color="#FFEC46" />
    </linearGradient>
  </defs>
</svg>