<svg width="263" height="96" viewBox="0 0 263 96" fill="none" xmlns="http://www.w3.org/2000/svg">
  <path fill-rule="evenodd" clip-rule="evenodd"
    d="M47.5675 0.408494C44.213 -0.454756 40.8237 -0.102482 38.3059 2.95567C58.1307 12.4321 68.1631 28.0751 68.8139 49.8963C82.5339 34.8998 82.0343 13.1443 74.6242 1.22142C74.4514 1.67762 74.2877 2.14162 74.1232 2.60767C73.7825 3.5732 73.4387 4.54753 73.0051 5.47961C71.1458 9.4552 68.3723 10.3804 64.5297 8.3171C63.5355 7.78173 62.5602 7.20618 61.5848 6.63062C60.0636 5.73295 58.5424 4.83525 56.9492 4.08989C53.9085 2.66533 50.8019 1.24078 47.5675 0.408494ZM62.1857 34.0953C56.8673 16.8264 40.0213 4.81062 22.7259 4.54351C22.9037 4.73007 23.0648 4.8925 23.2119 5.04075L23.212 5.04083L23.212 5.04084C23.5135 5.34476 23.7559 5.58911 23.9616 5.85969C24.2002 6.1742 24.447 6.48516 24.6941 6.79649C25.3776 7.65772 26.0633 8.52175 26.584 9.4714C28.0482 12.1463 27.4478 14.5193 24.9842 16.3193C24.3619 16.7761 23.6982 17.171 23.0346 17.5658L23.0345 17.5658L23.0345 17.5658L23.0345 17.5658L23.0345 17.5659L23.0344 17.5659L23.0342 17.566L23.0341 17.566L23.034 17.5661C22.7024 17.7634 22.3707 17.9608 22.0442 18.1658C21.099 18.7593 20.1477 19.3449 19.196 19.9308L19.1957 19.931L19.1956 19.931L19.1956 19.931C16.8634 21.3667 14.5292 22.8036 12.279 24.3596C9.85027 26.0512 7.73919 28.1455 6.53839 30.9404C5.69009 32.9146 5.3802 34.9353 6.34084 36.956C24.4303 24.5763 43.0233 23.7402 62.1857 34.0953ZM19.7822 81.7194C18.132 59.9369 26.5686 43.4112 45.2236 31.9257C27.2349 27.7953 8.20803 36.931 0 51.1843C0.529763 51.0952 1.05495 50.997 1.57777 50.8991L1.57811 50.8991L1.57844 50.899L1.57849 50.899L1.57854 50.899L1.57859 50.899C2.57695 50.7122 3.56666 50.527 4.56304 50.4101C8.63413 49.9262 10.997 51.7999 11.2294 55.8838C11.3405 57.8692 11.3631 59.8587 11.3857 61.848C11.4064 63.6717 11.4271 65.4952 11.516 67.3151C11.6903 70.9423 12.1862 74.5308 14.0997 77.7399C15.3935 79.9077 17.2101 81.3323 19.7822 81.7194ZM103.621 44.1822C95.359 58.1646 77.076 67.5132 58.3009 63.5144C77.0049 52.0792 85.5009 35.4685 83.7888 13.682C86.3841 14.0691 88.2046 15.5285 89.4906 17.7041C91.4274 20.9635 91.8884 24.6062 92.0627 28.2799C92.177 30.6164 92.192 32.9424 92.207 35.2685C92.2144 36.4109 92.2218 37.5533 92.2409 38.6969C92.3222 43.5203 94.84 45.6649 99.6006 44.9178C100.481 44.7845 101.345 44.6178 102.258 44.4414L102.258 44.4414L102.259 44.4413C102.699 44.3563 103.15 44.2691 103.621 44.1822ZM97.2955 58.3929C79.2022 70.7688 60.6711 71.6591 41.2802 61.2072C44.4914 70.552 49.9685 77.9187 57.9519 83.3924C64.6882 88.043 72.6226 90.6557 80.8058 90.9177C80.4097 90.4307 80.0192 89.9771 79.6423 89.5391L79.6422 89.5391C78.9467 88.731 78.297 87.9762 77.7418 87.1628C75.224 83.4659 75.8089 80.8026 79.5585 78.4064C79.8699 78.205 80.1895 78.0172 80.5091 77.8293L80.5094 77.8291C80.7304 77.6992 80.9514 77.5693 81.1699 77.4348C82.0437 76.8994 82.9212 76.3701 83.7985 75.8409L83.7992 75.8405L83.7994 75.8404C85.897 74.5751 87.9937 73.3104 90.0365 71.9649C92.5078 70.3391 94.7738 68.4152 96.3232 65.8486C97.7487 63.5144 98.3723 61.0485 97.2955 58.3929ZM28.9627 94.4017C20.3596 79.1303 22.8154 58.1375 34.8234 45.5758C35.4277 67.3235 45.4911 82.9356 65.2849 92.4159C64.6519 93.2193 63.8597 93.8833 62.9578 94.3662C62.0559 94.8492 61.0639 95.1407 60.044 95.2224C57.0429 95.4983 54.0249 94.9184 51.3401 93.5501C47.4976 91.6455 43.7325 89.5938 39.9791 87.5228C34.9899 84.7705 32.0344 85.8273 30.0163 91.2003C29.7694 91.8626 29.5574 92.5336 29.3253 93.2682L29.3252 93.2684C29.2114 93.6287 29.0927 94.0043 28.9627 94.4017Z"
    fill="#AFABAB" />
  <path
    d="M173.539 76.7774C171.624 76.7774 170.152 76.2245 169.123 75.1188C168.094 74.0131 167.58 72.3159 167.58 70.0273C167.58 67.623 168.114 65.8615 169.181 64.7429C170.261 63.6115 171.81 63.0458 173.829 63.0458C174.304 63.0458 174.761 63.0843 175.198 63.1615C175.648 63.2386 176.047 63.3351 176.394 63.4508C176.741 63.5665 177.011 63.6951 177.204 63.8365C177.409 63.9779 177.512 64.1129 177.512 64.2415C177.512 64.3444 177.474 64.4858 177.397 64.6658C177.319 64.8458 177.229 65.0065 177.127 65.1479C177.037 65.2894 176.947 65.3601 176.857 65.3601C176.792 65.3601 176.638 65.2894 176.394 65.1479C176.162 65.0065 175.834 64.8651 175.41 64.7237C174.999 64.5822 174.484 64.5115 173.867 64.5115C172.736 64.5115 171.836 64.7237 171.167 65.1479C170.512 65.5722 170.042 66.183 169.759 66.9801C169.477 67.7773 169.335 68.7351 169.335 69.8537C169.335 70.5866 169.399 71.2873 169.528 71.9559C169.657 72.6116 169.882 73.1902 170.203 73.6916C170.524 74.1931 170.962 74.5916 171.514 74.8874C172.08 75.1702 172.794 75.3117 173.655 75.3117C174.247 75.3117 174.793 75.2795 175.294 75.2152C175.809 75.1381 176.169 75.0609 176.374 74.9838L176.143 75.7167V71.1652H173.887C173.629 71.1652 173.501 70.9723 173.501 70.5866V70.278C173.501 69.8923 173.629 69.6994 173.887 69.6994H177.262C177.647 69.6994 177.84 69.8923 177.84 70.278V75.3888C177.84 75.6588 177.718 75.8838 177.474 76.0638C177.242 76.2438 176.921 76.3852 176.509 76.4881C176.111 76.591 175.654 76.6617 175.14 76.7002C174.626 76.7517 174.092 76.7774 173.539 76.7774Z"
    fill="#AFABAB" />
  <path
    d="M154.548 76.6994C154.034 76.6994 153.776 76.558 153.776 76.2751V63.5464C153.776 63.2635 154.034 63.1221 154.548 63.1221H154.953C155.171 63.1221 155.339 63.1478 155.454 63.1992C155.57 63.2506 155.673 63.3471 155.763 63.4885L161.819 72.6301C161.947 72.8229 162.063 73.0158 162.166 73.2086C162.269 73.3886 162.365 73.5815 162.455 73.7872L162.532 73.7679C162.519 73.5494 162.506 73.3501 162.494 73.1701C162.494 72.9772 162.494 72.7393 162.494 72.4565V63.5464C162.494 63.2635 162.751 63.1221 163.265 63.1221H163.4C163.914 63.1221 164.172 63.2635 164.172 63.5464V76.2751C164.172 76.558 163.914 76.6994 163.4 76.6994H163.014C162.834 76.6994 162.693 76.6801 162.59 76.6415C162.487 76.5901 162.404 76.5194 162.339 76.4294L156.129 67.0564C156.001 66.8636 155.885 66.6771 155.782 66.4971C155.692 66.3043 155.596 66.105 155.493 65.8993L155.416 65.9185C155.441 66.1371 155.454 66.3428 155.454 66.5357C155.454 66.7157 155.454 66.9471 155.454 67.23V76.2751C155.454 76.558 155.197 76.6994 154.683 76.6994H154.548Z"
    fill="#AFABAB" />
  <path
    d="M148.643 76.6994C148.129 76.6994 147.872 76.558 147.872 76.2751V63.5464C147.872 63.2635 148.129 63.1221 148.643 63.1221H148.797C149.312 63.1221 149.569 63.2635 149.569 63.5464V76.2751C149.569 76.558 149.312 76.6994 148.797 76.6994H148.643Z"
    fill="#AFABAB" />
  <path
    d="M133.939 76.6994C133.425 76.6994 133.167 76.558 133.167 76.2751V63.5464C133.167 63.2635 133.425 63.1221 133.939 63.1221H134.093C134.607 63.1221 134.865 63.2635 134.865 63.5464V69.0043H141.846V63.5464C141.846 63.2635 142.103 63.1221 142.618 63.1221H142.772C143.286 63.1221 143.543 63.2635 143.543 63.5464V76.2751C143.543 76.558 143.286 76.6994 142.772 76.6994H142.618C142.103 76.6994 141.846 76.558 141.846 76.2751V70.47H134.865V76.2751C134.865 76.558 134.607 76.6994 134.093 76.6994H133.939Z"
    fill="#AFABAB" />
  <path
    d="M123.835 76.7761C122.125 76.7761 120.82 76.384 119.92 75.5997C119.02 74.8154 118.57 73.7289 118.57 72.3403V63.5459C118.57 63.2631 118.827 63.1216 119.342 63.1216H119.496C120.01 63.1216 120.267 63.2631 120.267 63.5459V72.3982C120.267 72.9639 120.422 73.4718 120.73 73.9218C121.039 74.3589 121.463 74.6997 122.003 74.944C122.543 75.1882 123.154 75.3104 123.835 75.3104C124.53 75.3104 125.14 75.1882 125.668 74.944C126.208 74.6868 126.632 74.3397 126.94 73.9025C127.249 73.4654 127.403 72.9639 127.403 72.3982V63.5459C127.403 63.2631 127.66 63.1216 128.175 63.1216H128.329C128.843 63.1216 129.1 63.2631 129.1 63.5459V72.3403C129.1 73.7289 128.644 74.8154 127.731 75.5997C126.831 76.384 125.533 76.7761 123.835 76.7761ZM125.378 62.0416C125.083 62.0416 124.864 62.0095 124.723 61.9452C124.594 61.8681 124.53 61.7588 124.53 61.6173V60.5373C124.53 60.3959 124.594 60.293 124.723 60.2288C124.864 60.1516 125.083 60.113 125.378 60.113C125.674 60.113 125.886 60.1516 126.015 60.2288C126.156 60.293 126.227 60.3959 126.227 60.5373V61.6173C126.227 61.7588 126.156 61.8681 126.015 61.9452C125.886 62.0095 125.674 62.0416 125.378 62.0416ZM122.293 62.0416C121.997 62.0416 121.778 62.0095 121.637 61.9452C121.508 61.8681 121.444 61.7588 121.444 61.6173V60.5373C121.444 60.3959 121.508 60.293 121.637 60.2288C121.778 60.1516 121.997 60.113 122.293 60.113C122.588 60.113 122.8 60.1516 122.929 60.2288C123.07 60.293 123.141 60.3959 123.141 60.5373V61.6173C123.141 61.7588 123.07 61.8681 122.929 61.9452C122.8 62.0095 122.588 62.0416 122.293 62.0416Z"
    fill="#AFABAB" />
  <path
    d="M255.864 54.5792C255.479 54.5792 255.286 54.3863 255.286 54.0006V41.6576C255.286 41.2718 255.479 41.079 255.864 41.079H262.595C262.852 41.079 262.981 41.2718 262.981 41.6576V41.9661C262.981 42.3519 262.852 42.5447 262.595 42.5447H256.983V46.9419H262.016C262.274 46.9419 262.402 47.1348 262.402 47.5205V47.8291C262.402 48.2148 262.274 48.4076 262.016 48.4076H256.983V53.1134H262.614C262.871 53.1134 263 53.3063 263 53.692V54.0006C263 54.3863 262.871 54.5792 262.614 54.5792H255.864Z"
    fill="#AFABAB" />
  <path
    d="M247.478 54.6177C246.963 54.6177 246.706 54.4763 246.706 54.1934V42.5447H243.003C242.746 42.5447 242.618 42.3519 242.618 41.9661V41.6576C242.618 41.2718 242.746 41.079 243.003 41.079H252.049C252.306 41.079 252.434 41.2718 252.434 41.6576V41.9661C252.434 42.3519 252.306 42.5447 252.049 42.5447H248.403V54.1934C248.403 54.4763 248.146 54.6177 247.632 54.6177H247.478Z"
    fill="#AFABAB" />
  <path
    d="M236.717 54.6929C235.894 54.6929 235.161 54.5965 234.518 54.4036C233.875 54.2108 233.4 53.9986 233.091 53.7672C232.847 53.5872 232.725 53.4265 232.725 53.285C232.725 53.1822 232.763 53.0472 232.84 52.88C232.93 52.7129 233.027 52.565 233.13 52.4365C233.245 52.3079 233.335 52.2436 233.4 52.2436C233.438 52.2436 233.49 52.2629 233.554 52.3015C233.631 52.3272 233.715 52.3722 233.805 52.4365C234.062 52.5779 234.435 52.745 234.923 52.9379C235.412 53.1308 236.01 53.2272 236.717 53.2272C237.205 53.2272 237.636 53.1372 238.009 52.9572C238.395 52.7643 238.697 52.4943 238.915 52.1472C239.134 51.8 239.243 51.4014 239.243 50.9514C239.243 50.4371 239.102 50.0257 238.819 49.7171C238.549 49.3957 238.189 49.1321 237.739 48.9264C237.302 48.7207 236.833 48.5214 236.331 48.3285C235.92 48.1743 235.515 48.0071 235.116 47.8271C234.717 47.6343 234.357 47.4028 234.036 47.1328C233.715 46.8628 233.457 46.5221 233.265 46.1107C233.072 45.6864 232.975 45.1592 232.975 44.5292C232.975 43.8349 233.149 43.2178 233.496 42.6778C233.856 42.1377 234.357 41.7199 235 41.4242C235.643 41.1156 236.395 40.9613 237.257 40.9613C237.527 40.9613 237.829 40.987 238.163 41.0384C238.51 41.0899 238.845 41.167 239.166 41.2699C239.5 41.3727 239.77 41.4949 239.976 41.6363C240.233 41.7906 240.362 41.9577 240.362 42.1377C240.362 42.2278 240.323 42.3563 240.246 42.5235C240.169 42.6906 240.079 42.8385 239.976 42.967C239.886 43.0956 239.809 43.1599 239.745 43.1599C239.693 43.1599 239.623 43.1406 239.533 43.102C239.455 43.0506 239.353 42.9928 239.224 42.9285C239.018 42.8256 238.755 42.7163 238.433 42.6006C238.112 42.4849 237.707 42.427 237.218 42.427C236.743 42.427 236.312 42.5106 235.926 42.6778C235.553 42.8449 235.258 43.0892 235.039 43.4106C234.833 43.7321 234.73 44.1306 234.73 44.6064C234.73 45.0692 234.852 45.4356 235.097 45.7057C235.341 45.9757 235.663 46.2007 236.061 46.3807C236.46 46.5478 236.89 46.7214 237.353 46.9014C237.778 47.0685 238.202 47.255 238.626 47.4607C239.063 47.6535 239.462 47.8978 239.822 48.1935C240.182 48.4893 240.465 48.8621 240.67 49.3121C240.889 49.7493 240.998 50.2957 240.998 50.9514C240.998 51.53 240.895 52.0507 240.69 52.5136C240.497 52.9765 240.208 53.3686 239.822 53.69C239.449 54.0115 238.999 54.2622 238.472 54.4422C237.958 54.6093 237.373 54.6929 236.717 54.6929Z"
    fill="#AFABAB" />
  <path
    d="M223.373 54.5792C222.987 54.5792 222.794 54.3863 222.794 54.0006V41.6576C222.794 41.2718 222.987 41.079 223.373 41.079H230.104C230.361 41.079 230.49 41.2718 230.49 41.6576V41.9661C230.49 42.3519 230.361 42.5447 230.104 42.5447H224.492V46.9419H229.525C229.782 46.9419 229.911 47.1348 229.911 47.5205V47.8291C229.911 48.2148 229.782 48.4076 229.525 48.4076H224.492V53.1134H230.123C230.38 53.1134 230.509 53.3063 230.509 53.692V54.0006C230.509 54.3863 230.38 54.5792 230.123 54.5792H223.373Z"
    fill="#AFABAB" />
  <path
    d="M211.845 50.8172C211.652 50.8172 211.51 50.7336 211.42 50.5665L207.987 44.5878C207.897 44.4464 207.814 44.3049 207.737 44.1635C207.672 44.0221 207.602 43.8742 207.525 43.7199L207.447 43.7392C207.473 43.9064 207.486 44.0799 207.486 44.2599C207.486 44.4399 207.486 44.6199 207.486 44.7999V54.1922C207.486 54.4751 207.229 54.6165 206.715 54.6165H206.58C206.065 54.6165 205.808 54.4751 205.808 54.1922V41.4635C205.808 41.1806 206.065 41.0392 206.58 41.0392H207.274C207.505 41.0392 207.685 41.0713 207.814 41.1356C207.942 41.1999 208.032 41.2835 208.084 41.3863L211.729 47.7121C211.832 47.8793 211.928 48.0721 212.018 48.2907C212.108 48.5093 212.179 48.7214 212.23 48.9271C212.295 48.7086 212.385 48.4836 212.5 48.2521C212.629 48.0078 212.738 47.8086 212.828 47.6543L216.377 41.3863C216.441 41.2835 216.531 41.1999 216.647 41.1356C216.775 41.0713 216.955 41.0392 217.187 41.0392H217.823C218.338 41.0392 218.595 41.1806 218.595 41.4635V54.1922C218.595 54.4751 218.338 54.6165 217.823 54.6165H217.688C217.174 54.6165 216.917 54.4751 216.917 54.1922V44.9157C216.917 44.7357 216.917 44.5557 216.917 44.3757C216.93 44.1957 216.943 44.0221 216.955 43.8549L216.878 43.8357C216.801 43.9899 216.724 44.1378 216.647 44.2792C216.583 44.4207 216.505 44.5621 216.415 44.7035L213.04 50.5665C212.95 50.7336 212.809 50.8172 212.616 50.8172H211.845Z"
    fill="#AFABAB" />
  <path
    d="M200.673 54.6165C200.159 54.6165 199.902 54.4751 199.902 54.1922V41.4635C199.902 41.1806 200.159 41.0392 200.673 41.0392H200.828C201.342 41.0392 201.599 41.1806 201.599 41.4635V54.1922C201.599 54.4751 201.342 54.6165 200.828 54.6165H200.673Z"
    fill="#AFABAB" />
  <path
    d="M186.098 54.6165C185.584 54.6165 185.327 54.4751 185.327 54.1922V41.4635C185.327 41.1806 185.584 41.0392 186.098 41.0392H186.503C186.722 41.0392 186.889 41.0649 187.005 41.1163C187.12 41.1678 187.223 41.2642 187.313 41.4056L193.369 50.5472C193.497 50.74 193.613 50.9329 193.716 51.1257C193.819 51.3058 193.915 51.4986 194.005 51.7043L194.082 51.685C194.07 51.4665 194.057 51.2672 194.044 51.0872C194.044 50.8943 194.044 50.6565 194.044 50.3736V41.4635C194.044 41.1806 194.301 41.0392 194.815 41.0392H194.95C195.465 41.0392 195.722 41.1806 195.722 41.4635V54.1922C195.722 54.4751 195.465 54.6165 194.95 54.6165H194.565C194.385 54.6165 194.243 54.5972 194.14 54.5586C194.037 54.5072 193.954 54.4365 193.89 54.3465L187.68 44.9735C187.551 44.7807 187.435 44.5942 187.332 44.4142C187.242 44.2214 187.146 44.0221 187.043 43.8164L186.966 43.8357C186.992 44.0542 187.005 44.2599 187.005 44.4528C187.005 44.6328 187.005 44.8642 187.005 45.1471V54.1922C187.005 54.4751 186.747 54.6165 186.233 54.6165H186.098Z"
    fill="#AFABAB" />
  <path
    d="M180.193 54.6165C179.679 54.6165 179.422 54.4751 179.422 54.1922V41.4635C179.422 41.1806 179.679 41.0392 180.193 41.0392H180.348C180.862 41.0392 181.119 41.1806 181.119 41.4635V54.1922C181.119 54.4751 180.862 54.6165 180.348 54.6165H180.193Z"
    fill="#AFABAB" />
  <path
    d="M172.035 54.6929C171.212 54.6929 170.479 54.5965 169.836 54.4036C169.193 54.2108 168.717 53.9986 168.409 53.7672C168.165 53.5872 168.042 53.4265 168.042 53.285C168.042 53.1822 168.081 53.0472 168.158 52.88C168.248 52.7129 168.345 52.565 168.447 52.4365C168.563 52.3079 168.653 52.2436 168.717 52.2436C168.756 52.2436 168.807 52.2629 168.872 52.3015C168.949 52.3272 169.032 52.3722 169.122 52.4365C169.38 52.5779 169.753 52.745 170.241 52.9379C170.73 53.1308 171.328 53.2272 172.035 53.2272C172.523 53.2272 172.954 53.1372 173.327 52.9572C173.713 52.7643 174.015 52.4943 174.233 52.1472C174.452 51.8 174.561 51.4014 174.561 50.9514C174.561 50.4371 174.42 50.0257 174.137 49.7171C173.867 49.3957 173.507 49.1321 173.057 48.9264C172.62 48.7207 172.15 48.5214 171.649 48.3285C171.238 48.1743 170.833 48.0071 170.434 47.8271C170.035 47.6343 169.675 47.4028 169.354 47.1328C169.032 46.8628 168.775 46.5221 168.582 46.1107C168.39 45.6864 168.293 45.1592 168.293 44.5292C168.293 43.8349 168.467 43.2178 168.814 42.6778C169.174 42.1377 169.675 41.7199 170.318 41.4242C170.961 41.1156 171.713 40.9613 172.575 40.9613C172.845 40.9613 173.147 40.987 173.481 41.0384C173.828 41.0899 174.163 41.167 174.484 41.2699C174.818 41.3727 175.088 41.4949 175.294 41.6363C175.551 41.7906 175.68 41.9577 175.68 42.1377C175.68 42.2278 175.641 42.3563 175.564 42.5235C175.487 42.6906 175.397 42.8385 175.294 42.967C175.204 43.0956 175.127 43.1599 175.063 43.1599C175.011 43.1599 174.94 43.1406 174.85 43.102C174.773 43.0506 174.67 42.9928 174.542 42.9285C174.336 42.8256 174.073 42.7163 173.751 42.6006C173.43 42.4849 173.025 42.427 172.536 42.427C172.06 42.427 171.63 42.5106 171.244 42.6778C170.871 42.8449 170.575 43.0892 170.357 43.4106C170.151 43.7321 170.048 44.1306 170.048 44.6064C170.048 45.0692 170.17 45.4356 170.415 45.7057C170.659 45.9757 170.98 46.2007 171.379 46.3807C171.778 46.5478 172.208 46.7214 172.671 46.9014C173.095 47.0685 173.52 47.255 173.944 47.4607C174.381 47.6535 174.78 47.8978 175.14 48.1935C175.5 48.4893 175.783 48.8621 175.988 49.3121C176.207 49.7493 176.316 50.2957 176.316 50.9514C176.316 51.53 176.213 52.0507 176.008 52.5136C175.815 52.9765 175.525 53.3686 175.14 53.69C174.767 54.0115 174.317 54.2622 173.79 54.4422C173.275 54.6093 172.69 54.6929 172.035 54.6929Z"
    fill="#AFABAB" />
  <path
    d="M155.396 54.6165C154.882 54.6165 154.625 54.4751 154.625 54.1922V41.4635C154.625 41.1806 154.882 41.0392 155.396 41.0392H155.801C156.02 41.0392 156.187 41.0649 156.302 41.1163C156.418 41.1678 156.521 41.2642 156.611 41.4056L162.667 50.5472C162.795 50.74 162.911 50.9329 163.014 51.1257C163.117 51.3058 163.213 51.4986 163.303 51.7043L163.38 51.685C163.367 51.4665 163.355 51.2672 163.342 51.0872C163.342 50.8943 163.342 50.6565 163.342 50.3736V41.4635C163.342 41.1806 163.599 41.0392 164.113 41.0392H164.248C164.763 41.0392 165.02 41.1806 165.02 41.4635V54.1922C165.02 54.4751 164.763 54.6165 164.248 54.6165H163.862C163.682 54.6165 163.541 54.5972 163.438 54.5586C163.335 54.5072 163.252 54.4365 163.187 54.3465L156.977 44.9735C156.849 44.7807 156.733 44.5942 156.63 44.4142C156.54 44.2214 156.444 44.0221 156.341 43.8164L156.264 43.8357C156.29 44.0542 156.302 44.2599 156.302 44.4528C156.302 44.6328 156.302 44.8642 156.302 45.1471V54.1922C156.302 54.4751 156.045 54.6165 155.531 54.6165H155.396Z"
    fill="#AFABAB" />
  <path
    d="M141.543 54.6165C140.99 54.6165 140.714 54.5072 140.714 54.2886C140.714 54.2501 140.72 54.2115 140.733 54.1729C140.746 54.1215 140.759 54.0701 140.772 54.0186L145.343 41.3478C145.407 41.142 145.664 41.0392 146.114 41.0392H146.673C147.123 41.0392 147.38 41.142 147.445 41.3478L152.015 54.0379C152.054 54.1279 152.073 54.2115 152.073 54.2886C152.073 54.5072 151.797 54.6165 151.244 54.6165H151.09C150.897 54.6165 150.73 54.5972 150.588 54.5586C150.447 54.5072 150.357 54.4236 150.318 54.3079L149.18 51.145H143.51L142.411 54.3079C142.372 54.4236 142.282 54.5072 142.141 54.5586C142 54.5972 141.832 54.6165 141.64 54.6165H141.543ZM144.05 49.6793H148.66L146.635 43.9321C146.583 43.7521 146.538 43.5656 146.5 43.3728C146.461 43.1799 146.429 42.9935 146.403 42.8135H146.365C146.326 42.9935 146.281 43.1799 146.23 43.3728C146.191 43.5656 146.14 43.7521 146.075 43.9321L144.05 49.6793Z"
    fill="#AFABAB" />
  <path
    d="M130.775 54.6177C130.261 54.6177 130.003 54.4763 130.003 54.1934V41.6576C130.003 41.2718 130.196 41.079 130.582 41.079H133.822C135.326 41.079 136.477 41.3426 137.274 41.8697C138.071 42.3969 138.47 43.2712 138.47 44.4926C138.47 45.3155 138.271 45.9969 137.872 46.5369C137.474 47.0769 136.934 47.4819 136.252 47.7519V47.8291C136.664 47.9576 136.991 48.2341 137.236 48.6584C137.493 49.0698 137.744 49.597 137.988 50.2398L139.492 54.0392C139.531 54.1549 139.55 54.2449 139.55 54.3092C139.55 54.5149 139.28 54.6177 138.74 54.6177H138.547C138.354 54.6177 138.187 54.592 138.046 54.5406C137.904 54.4763 137.814 54.3992 137.776 54.3092L136.31 50.5291C136.027 49.7705 135.667 49.2691 135.23 49.0248C134.793 48.7677 134.195 48.6391 133.436 48.6391H131.701V54.1934C131.701 54.4763 131.443 54.6177 130.929 54.6177H130.775ZM131.701 47.1733H134.246C134.709 47.1733 135.127 47.0641 135.5 46.8455C135.873 46.6269 136.169 46.3376 136.387 45.9776C136.606 45.6176 136.715 45.2255 136.715 44.8012C136.715 44.0169 136.477 43.4447 136.001 43.0847C135.526 42.7247 134.896 42.5447 134.111 42.5447H131.701V47.1733Z"
    fill="#AFABAB" />
  <path
    d="M122.215 54.6177C121.701 54.6177 121.444 54.4763 121.444 54.1934V42.5447H117.741C117.484 42.5447 117.355 42.3519 117.355 41.9661V41.6576C117.355 41.2718 117.484 41.079 117.741 41.079H126.786C127.043 41.079 127.172 41.2718 127.172 41.6576V41.9661C127.172 42.3519 127.043 42.5447 126.786 42.5447H123.141V54.1934C123.141 54.4763 122.884 54.6177 122.369 54.6177H122.215Z"
    fill="#AFABAB" />
  <path
    d="M163.209 32.5335C162.695 32.5335 162.438 32.3921 162.438 32.1092V19.3805C162.438 19.0976 162.695 18.9562 163.209 18.9562H163.364C163.878 18.9562 164.135 19.0976 164.135 19.3805V32.1092C164.135 32.3921 163.878 32.5335 163.364 32.5335H163.209Z"
    fill="#AFABAB" />
  <path
    d="M154.65 32.5346C154.135 32.5346 153.878 32.3932 153.878 32.1103V20.4616H150.175C149.918 20.4616 149.79 20.2687 149.79 19.883V19.5744C149.79 19.1887 149.918 18.9958 150.175 18.9958H159.22C159.478 18.9958 159.606 19.1887 159.606 19.5744V19.883C159.606 20.2687 159.478 20.4616 159.22 20.4616H155.575V32.1103C155.575 32.3932 155.318 32.5346 154.804 32.5346H154.65Z"
    fill="#AFABAB" />
  <path
    d="M143.889 32.6116C143.066 32.6116 142.333 32.5152 141.69 32.3223C141.047 32.1295 140.571 31.9173 140.263 31.6859C140.019 31.5059 139.896 31.3452 139.896 31.2037C139.896 31.1009 139.935 30.9659 140.012 30.7987C140.102 30.6316 140.199 30.4837 140.301 30.3552C140.417 30.2266 140.507 30.1623 140.571 30.1623C140.61 30.1623 140.661 30.1816 140.726 30.2202C140.803 30.2459 140.886 30.2909 140.977 30.3552C141.234 30.4966 141.607 30.6637 142.095 30.8566C142.584 31.0495 143.182 31.1459 143.889 31.1459C144.377 31.1459 144.808 31.0559 145.181 30.8759C145.567 30.683 145.869 30.413 146.087 30.0659C146.306 29.7187 146.415 29.3201 146.415 28.8701C146.415 28.3558 146.274 27.9444 145.991 27.6358C145.721 27.3144 145.361 27.0508 144.911 26.8451C144.474 26.6394 144.004 26.4401 143.503 26.2472C143.092 26.093 142.687 25.9258 142.288 25.7458C141.889 25.553 141.529 25.3215 141.208 25.0515C140.886 24.7815 140.629 24.4408 140.436 24.0294C140.244 23.6051 140.147 23.0779 140.147 22.4479C140.147 21.7536 140.321 21.1365 140.668 20.5965C141.028 20.0564 141.529 19.6386 142.172 19.3429C142.815 19.0343 143.567 18.88 144.429 18.88C144.699 18.88 145.001 18.9057 145.335 18.9571C145.682 19.0086 146.017 19.0857 146.338 19.1886C146.672 19.2914 146.942 19.4136 147.148 19.555C147.405 19.7093 147.534 19.8764 147.534 20.0564C147.534 20.1465 147.495 20.275 147.418 20.4422C147.341 20.6093 147.251 20.7572 147.148 20.8857C147.058 21.0143 146.981 21.0786 146.917 21.0786C146.865 21.0786 146.794 21.0593 146.704 21.0207C146.627 20.9693 146.524 20.9115 146.396 20.8472C146.19 20.7443 145.927 20.635 145.605 20.5193C145.284 20.4036 144.879 20.3457 144.39 20.3457C143.914 20.3457 143.484 20.4293 143.098 20.5965C142.725 20.7636 142.429 21.0079 142.211 21.3293C142.005 21.6508 141.902 22.0493 141.902 22.5251C141.902 22.9879 142.024 23.3544 142.269 23.6244C142.513 23.8944 142.834 24.1194 143.233 24.2994C143.632 24.4665 144.062 24.6401 144.525 24.8201C144.949 24.9872 145.374 25.1737 145.798 25.3794C146.235 25.5722 146.634 25.8165 146.994 26.1122C147.354 26.408 147.637 26.7808 147.842 27.2308C148.061 27.668 148.17 28.2144 148.17 28.8701C148.17 29.4487 148.067 29.9694 147.862 30.4323C147.669 30.8952 147.379 31.2873 146.994 31.6087C146.621 31.9302 146.171 32.1809 145.644 32.3609C145.129 32.528 144.544 32.6116 143.889 32.6116Z"
    fill="#AFABAB" />
  <path
    d="M130.545 32.496C130.159 32.496 129.966 32.3032 129.966 31.9175V19.5744C129.966 19.1887 130.159 18.9958 130.545 18.9958H137.276C137.533 18.9958 137.661 19.1887 137.661 19.5744V19.883C137.661 20.2687 137.533 20.4616 137.276 20.4616H131.663V24.8588H136.697C136.954 24.8588 137.083 25.0516 137.083 25.4374V25.7459C137.083 26.1317 136.954 26.3245 136.697 26.3245H131.663V31.0303H137.295C137.552 31.0303 137.681 31.2232 137.681 31.6089V31.9175C137.681 32.3032 137.552 32.496 137.295 32.496H130.545Z"
    fill="#AFABAB" />
  <path
    d="M119.438 32.496C119.053 32.496 118.86 32.3032 118.86 31.9175V19.5744C118.86 19.1887 119.053 18.9958 119.438 18.9958H126.169C126.426 18.9958 126.555 19.1887 126.555 19.5744V19.883C126.555 20.2687 126.426 20.4616 126.169 20.4616H120.557V24.8588H125.591C125.848 24.8588 125.976 25.0516 125.976 25.4374V25.7459C125.976 26.1317 125.848 26.3245 125.591 26.3245H120.557V31.0303H126.189C126.446 31.0303 126.574 31.2232 126.574 31.6089V31.9175C126.574 32.3032 126.446 32.496 126.189 32.496H119.438Z"
    fill="#AFABAB" />
</svg>